<svg width="17" height="14" viewBox="0 0 17 14" fill="none" xmlns="http://www.w3.org/2000/svg">
<path d="M8.33875 13.2063C10.9862 13.2063 13.4538 11.6462 15.1713 8.94625C15.8463 7.88875 15.8463 6.11125 15.1713 5.05375C13.4538 2.35375 10.9862 0.79375 8.33875 0.79375C5.69125 0.79375 3.22375 2.35375 1.50625 5.05375C0.83125 6.11125 0.83125 7.88875 1.50625 8.94625C3.22375 11.6462 5.69125 13.2063 8.33875 13.2063Z" stroke="#292929" stroke-width="1.5" stroke-linecap="round" stroke-linejoin="round"></path>
<path d="M11 6.5C11 7.88268 9.88268 9 8.5 9C7.11732 9 6 7.88268 6 6.5C6 5.11732 7.11732 4 8.5 4C9.88268 4 11 5.11732 11 6.5Z" stroke="#292929" stroke-width="1.5" stroke-linecap="round" stroke-linejoin="round"></path>
</svg>
