<svg width="64" height="64" viewBox="0 0 64 64" fill="none" xmlns="http://www.w3.org/2000/svg">
<path d="M58 32H6C4.4087 32 2.88258 32.7224 1.75736 34.0084C0.632141 35.2944 0 37.0385 0 38.8571C0 40.6758 0.632141 42.4199 1.75736 43.7059C2.88258 44.9918 4.4087 45.7143 6 45.7143H58C59.5913 45.7143 61.1174 44.9918 62.2426 43.7059C63.3679 42.4199 64 40.6758 64 38.8571C64 37.0385 63.3679 35.2944 62.2426 34.0084C61.1174 32.7224 59.5913 32 58 32ZM60 50.2857H4C3.46957 50.2857 2.96086 50.5265 2.58579 50.9552C2.21071 51.3838 2 51.9652 2 52.5714V54.8571C2 57.282 2.84285 59.6075 4.34315 61.3221C5.84344 63.0367 7.87827 64 10 64H54C56.1217 64 58.1566 63.0367 59.6569 61.3221C61.1571 59.6075 62 57.282 62 54.8571V52.5714C62 51.9652 61.7893 51.3838 61.4142 50.9552C61.0391 50.5265 60.5304 50.2857 60 50.2857ZM7.33 27.4286H56.67C60.9912 27.4286 63.4975 21.1571 61.0225 16.5886C56 7.31429 44.9437 0.0142857 32 0C19.0575 0.0142857 8 7.31429 2.9775 16.5871C0.5 21.1557 3.00875 27.4286 7.33 27.4286ZM48 11.4286C48.3956 11.4286 48.7822 11.5626 49.1111 11.8138C49.44 12.0649 49.6964 12.4219 49.8478 12.8396C49.9991 13.2572 50.0387 13.7168 49.9616 14.1602C49.8844 14.6036 49.6939 15.0109 49.4142 15.3305C49.1345 15.6502 48.7781 15.8679 48.3902 15.9561C48.0022 16.0443 47.6001 15.999 47.2346 15.826C46.8692 15.653 46.5568 15.36 46.3371 14.9842C46.1173 14.6083 46 14.1664 46 13.7143C46 13.1081 46.2107 12.5267 46.5858 12.098C46.9609 11.6694 47.4696 11.4286 48 11.4286ZM32 6.85714C32.3956 6.85714 32.7822 6.9912 33.1111 7.24236C33.44 7.49351 33.6964 7.85049 33.8478 8.26815C33.9991 8.68581 34.0387 9.14539 33.9616 9.58878C33.8844 10.0322 33.6939 10.4394 33.4142 10.7591C33.1345 11.0788 32.7781 11.2965 32.3902 11.3847C32.0022 11.4728 31.6001 11.4276 31.2346 11.2546C30.8692 11.0816 30.5568 10.7886 30.3371 10.4127C30.1173 10.0368 30 9.59493 30 9.14286C30 8.53665 30.2107 7.95527 30.5858 7.52661C30.9609 7.09796 31.4696 6.85714 32 6.85714ZM16 11.4286C16.3956 11.4286 16.7822 11.5626 17.1111 11.8138C17.44 12.0649 17.6964 12.4219 17.8478 12.8396C17.9991 13.2572 18.0387 13.7168 17.9616 14.1602C17.8844 14.6036 17.6939 15.0109 17.4142 15.3305C17.1345 15.6502 16.7781 15.8679 16.3902 15.9561C16.0022 16.0443 15.6001 15.999 15.2346 15.826C14.8692 15.653 14.5568 15.36 14.3371 14.9842C14.1173 14.6083 14 14.1664 14 13.7143C14 13.1081 14.2107 12.5267 14.5858 12.098C14.9609 11.6694 15.4696 11.4286 16 11.4286Z" fill="#292929"/>
</svg>
