<svg display="none" xmlns="http://www.w3.org/2000/svg">
    <symbol id="arrow" viewBox="0 0 18 18" fill="none">
        <g>
            <path d="M14.94 6.75L10.05 11.64C9.4725 12.2175 8.5275 12.2175 7.95 11.64L3.06 6.75" stroke-width="1.5"
                stroke-miterlimit="10" stroke-linecap="round" stroke-linejoin="round" />
        </g>
    </symbol>

    <symbol id="burger" viewBox="0 0 64 64">
        <g>
            <path
                d="M58 32H6C4.4087 32 2.88258 32.7224 1.75736 34.0084C0.632141 35.2944 0 37.0385 0 38.8571C0 40.6758 0.632141 42.4199 1.75736 43.7059C2.88258 44.9918 4.4087 45.7143 6 45.7143H58C59.5913 45.7143 61.1174 44.9918 62.2426 43.7059C63.3679 42.4199 64 40.6758 64 38.8571C64 37.0385 63.3679 35.2944 62.2426 34.0084C61.1174 32.7224 59.5913 32 58 32ZM60 50.2857H4C3.46957 50.2857 2.96086 50.5265 2.58579 50.9552C2.21071 51.3838 2 51.9652 2 52.5714V54.8571C2 57.282 2.84285 59.6075 4.34315 61.3221C5.84344 63.0367 7.87827 64 10 64H54C56.1217 64 58.1566 63.0367 59.6569 61.3221C61.1571 59.6075 62 57.282 62 54.8571V52.5714C62 51.9652 61.7893 51.3838 61.4142 50.9552C61.0391 50.5265 60.5304 50.2857 60 50.2857ZM7.33 27.4286H56.67C60.9912 27.4286 63.4975 21.1571 61.0225 16.5886C56 7.31429 44.9437 0.0142857 32 0C19.0575 0.0142857 8 7.31429 2.9775 16.5871C0.5 21.1557 3.00875 27.4286 7.33 27.4286ZM48 11.4286C48.3956 11.4286 48.7822 11.5626 49.1111 11.8138C49.44 12.0649 49.6964 12.4219 49.8478 12.8396C49.9991 13.2572 50.0387 13.7168 49.9616 14.1602C49.8844 14.6036 49.6939 15.0109 49.4142 15.3305C49.1345 15.6502 48.7781 15.8679 48.3902 15.9561C48.0022 16.0443 47.6001 15.999 47.2346 15.826C46.8692 15.653 46.5568 15.36 46.3371 14.9842C46.1173 14.6083 46 14.1664 46 13.7143C46 13.1081 46.2107 12.5267 46.5858 12.098C46.9609 11.6694 47.4696 11.4286 48 11.4286ZM32 6.85714C32.3956 6.85714 32.7822 6.9912 33.1111 7.24236C33.44 7.49351 33.6964 7.85049 33.8478 8.26815C33.9991 8.68581 34.0387 9.14539 33.9616 9.58878C33.8844 10.0322 33.6939 10.4394 33.4142 10.7591C33.1345 11.0788 32.7781 11.2965 32.3902 11.3847C32.0022 11.4728 31.6001 11.4276 31.2346 11.2546C30.8692 11.0816 30.5568 10.7886 30.3371 10.4127C30.1173 10.0368 30 9.59493 30 9.14286C30 8.53665 30.2107 7.95527 30.5858 7.52661C30.9609 7.09796 31.4696 6.85714 32 6.85714ZM16 11.4286C16.3956 11.4286 16.7822 11.5626 17.1111 11.8138C17.44 12.0649 17.6964 12.4219 17.8478 12.8396C17.9991 13.2572 18.0387 13.7168 17.9616 14.1602C17.8844 14.6036 17.6939 15.0109 17.4142 15.3305C17.1345 15.6502 16.7781 15.8679 16.3902 15.9561C16.0022 16.0443 15.6001 15.999 15.2346 15.826C14.8692 15.653 14.5568 15.36 14.3371 14.9842C14.1173 14.6083 14 14.1664 14 13.7143C14 13.1081 14.2107 12.5267 14.5858 12.098C14.9609 11.6694 15.4696 11.4286 16 11.4286Z" />
        </g>
    </symbol>

    <symbol id="calendar" viewBox="0 0 24 24">
        <g>
            <path
                d="M8 2V5M16 2V5M3.5 9.09H20.5M21 8.5V17C21 20 19.5 22 16 22H8C4.5 22 3 20 3 17V8.5C3 5.5 4.5 3.5 8 3.5H16C19.5 3.5 21 5.5 21 8.5Z"
                stroke-width="1.5" stroke-miterlimit="10" stroke-linecap="round" stroke-linejoin="round" />
            <path
                d="M15.695 13.7H15.704M15.695 16.7H15.704M11.995 13.7H12.005M11.995 16.7H12.005M8.294 13.7H8.304M8.294 16.7H8.304"
                stroke-width="2" stroke-linecap="round" stroke-linejoin="round" />
        </g>
    </symbol>

    <symbol id="eye" viewBox="0 0 17 14" fill="none">
        <g>
            <path
                d="M8.33875 13.2063C10.9862 13.2063 13.4538 11.6462 15.1713 8.94625C15.8463 7.88875 15.8463 6.11125 15.1713 5.05375C13.4538 2.35375 10.9862 0.79375 8.33875 0.79375C5.69125 0.79375 3.22375 2.35375 1.50625 5.05375C0.83125 6.11125 0.83125 7.88875 1.50625 8.94625C3.22375 11.6462 5.69125 13.2063 8.33875 13.2063Z"
                stroke-width="1.5" stroke-linecap="round" stroke-linejoin="round" />
            <path
                d="M11 6.5C11 7.88268 9.88268 9 8.5 9C7.11732 9 6 7.88268 6 6.5C6 5.11732 7.11732 4 8.5 4C9.88268 4 11 5.11732 11 6.5Z"
                stroke-width="1.5" stroke-linecap="round" stroke-linejoin="round" />
        </g>
    </symbol>

    <symbol id="paper" viewBox="0 0 32 48">
        <g>
            <path
                d="M13.3334 12.75V0H30.0001C31.1084 0 32.0001 1.00312 32.0001 2.25V45.75C32.0001 46.9969 31.1084 48 30.0001 48H2.00006C0.891727 48 6.10352e-05 46.9969 6.10352e-05 45.75V15H11.3334C12.4334 15 13.3334 13.9875 13.3334 12.75ZM6.10352e-05 11.4281V12H10.6667V0H10.1584C9.62506 0 9.11673 0.234375 8.74173 0.65625L0.583393 9.84375C0.208393 10.2656 6.10352e-05 10.8375 6.10352e-05 11.4281Z" />
        </g>
    </symbol>

    <symbol id="peoples" viewBox="0 0 65 48">
        <g>
            <path
                d="M10.2837 20.5714C13.8137 20.5714 16.6837 17.4964 16.6837 13.7143C16.6837 9.93214 13.8137 6.85714 10.2837 6.85714C6.75372 6.85714 3.88372 9.93214 3.88372 13.7143C3.88372 17.4964 6.75372 20.5714 10.2837 20.5714ZM55.0837 20.5714C58.6137 20.5714 61.4837 17.4964 61.4837 13.7143C61.4837 9.93214 58.6137 6.85714 55.0837 6.85714C51.5537 6.85714 48.6837 9.93214 48.6837 13.7143C48.6837 17.4964 51.5537 20.5714 55.0837 20.5714ZM58.2837 24H51.8837C50.1237 24 48.5337 24.7607 47.3737 25.9929C51.4037 28.3607 54.2637 32.6357 54.8837 37.7143H61.4837C63.2537 37.7143 64.6837 36.1821 64.6837 34.2857V30.8571C64.6837 27.075 61.8137 24 58.2837 24ZM32.6837 24C38.8737 24 43.8837 18.6321 43.8837 12C43.8837 5.36786 38.8737 0 32.6837 0C26.4937 0 21.4837 5.36786 21.4837 12C21.4837 18.6321 26.4937 24 32.6837 24ZM40.3637 27.4286H39.5337C37.4537 28.5 35.1437 29.1429 32.6837 29.1429C30.2237 29.1429 27.9237 28.5 25.8337 27.4286H25.0037C18.6437 27.4286 13.4837 32.9571 13.4837 39.7714V42.8571C13.4837 45.6964 15.6337 48 18.2837 48H47.0837C49.7337 48 51.8837 45.6964 51.8837 42.8571V39.7714C51.8837 32.9571 46.7237 27.4286 40.3637 27.4286ZM17.9937 25.9929C16.8337 24.7607 15.2437 24 13.4837 24H7.08372C3.55372 24 0.683716 27.075 0.683716 30.8571V34.2857C0.683716 36.1821 2.11372 37.7143 3.88372 37.7143H10.4737C11.1037 32.6357 13.9637 28.3607 17.9937 25.9929Z" />
        </g>
    </symbol>

    <symbol id="sportsman" viewBox="0 0 128 128">
        <g>
            <path
                d="M108.005 24.0047C114.63 24.0047 120.006 18.6286 120.006 12.0023C120.006 5.37605 114.63 0 108.005 0C101.38 0 96.0044 5.37605 96.0044 12.0023C96.0044 18.6286 101.38 24.0047 108.005 24.0047ZM126.256 113.047C123.906 110.697 120.106 110.697 117.781 113.047C114.756 116.073 110.155 116.898 106.505 115.223L72.5531 97.6691L84.8538 79.2155C88.029 74.4645 87.4039 68.0883 83.3537 64.0625L73.2531 53.9355L46.5016 40.6579C45.7765 45.6339 47.3516 50.6599 50.9268 54.2606L69.7029 73.0643L58.2272 90.2676L8.74938 64.6876C5.82421 63.1873 2.199 64.3126 0.673914 67.2631C-0.851174 70.2137 0.298893 73.8394 3.24906 75.3397L101.23 125.975C104.205 127.35 107.355 128 110.505 128C116.306 128 122.006 125.75 126.256 121.499C128.581 119.173 128.581 115.373 126.256 113.047ZM30.0006 22.9045L27.1254 28.5306C30.7256 30.3559 34.9259 29.7558 37.8261 27.3303L49.6267 33.1815C49.6017 33.2065 49.6017 33.2315 49.5767 33.2565L78.2034 47.4593L86.3039 44.2086L87.904 48.9846C88.904 52.0102 91.0541 54.4856 93.9043 55.9109L108.43 63.1623C112.405 65.1377 117.181 63.5374 119.156 59.5866C121.131 55.6359 119.531 50.8349 115.581 48.8595L102.555 42.3333L98.2795 29.5308C96.2544 23.4796 88.054 15.378 77.1533 19.7289L56.8522 27.8554L41.2263 20.1039C41.3013 16.4782 39.4261 12.9525 36.0009 11.2022L33.2258 16.6282H33.1758L24.5753 14.8779C24.1253 14.7779 23.6502 14.9279 23.3252 15.303C22.8502 15.8531 22.9002 16.6783 23.4502 17.1534L30.0006 22.9045Z" />
        </g>
    </symbol>

</svg>