<svg width="65" height="48" viewBox="0 0 65 48" fill="none" xmlns="http://www.w3.org/2000/svg">
<path d="M10.2837 20.5714C13.8137 20.5714 16.6837 17.4964 16.6837 13.7143C16.6837 9.93214 13.8137 6.85714 10.2837 6.85714C6.75372 6.85714 3.88372 9.93214 3.88372 13.7143C3.88372 17.4964 6.75372 20.5714 10.2837 20.5714ZM55.0837 20.5714C58.6137 20.5714 61.4837 17.4964 61.4837 13.7143C61.4837 9.93214 58.6137 6.85714 55.0837 6.85714C51.5537 6.85714 48.6837 9.93214 48.6837 13.7143C48.6837 17.4964 51.5537 20.5714 55.0837 20.5714ZM58.2837 24H51.8837C50.1237 24 48.5337 24.7607 47.3737 25.9929C51.4037 28.3607 54.2637 32.6357 54.8837 37.7143H61.4837C63.2537 37.7143 64.6837 36.1821 64.6837 34.2857V30.8571C64.6837 27.075 61.8137 24 58.2837 24ZM32.6837 24C38.8737 24 43.8837 18.6321 43.8837 12C43.8837 5.36786 38.8737 0 32.6837 0C26.4937 0 21.4837 5.36786 21.4837 12C21.4837 18.6321 26.4937 24 32.6837 24ZM40.3637 27.4286H39.5337C37.4537 28.5 35.1437 29.1429 32.6837 29.1429C30.2237 29.1429 27.9237 28.5 25.8337 27.4286H25.0037C18.6437 27.4286 13.4837 32.9571 13.4837 39.7714V42.8571C13.4837 45.6964 15.6337 48 18.2837 48H47.0837C49.7337 48 51.8837 45.6964 51.8837 42.8571V39.7714C51.8837 32.9571 46.7237 27.4286 40.3637 27.4286ZM17.9937 25.9929C16.8337 24.7607 15.2437 24 13.4837 24H7.08372C3.55372 24 0.683716 27.075 0.683716 30.8571V34.2857C0.683716 36.1821 2.11372 37.7143 3.88372 37.7143H10.4737C11.1037 32.6357 13.9637 28.3607 17.9937 25.9929Z" fill="black"/>
</svg>
