<svg width="128" height="128" viewBox="0 0 128 128" fill="none" xmlns="http://www.w3.org/2000/svg">
<path d="M108.005 24.0047C114.63 24.0047 120.006 18.6286 120.006 12.0023C120.006 5.37605 114.63 0 108.005 0C101.38 0 96.0044 5.37605 96.0044 12.0023C96.0044 18.6286 101.38 24.0047 108.005 24.0047ZM126.256 113.047C123.906 110.697 120.106 110.697 117.781 113.047C114.756 116.073 110.155 116.898 106.505 115.223L72.5531 97.6691L84.8538 79.2155C88.029 74.4645 87.4039 68.0883 83.3537 64.0625L73.2531 53.9355L46.5016 40.6579C45.7765 45.6339 47.3516 50.6599 50.9268 54.2606L69.7029 73.0643L58.2272 90.2676L8.74938 64.6876C5.82421 63.1873 2.199 64.3126 0.673914 67.2631C-0.851174 70.2137 0.298893 73.8394 3.24906 75.3397L101.23 125.975C104.205 127.35 107.355 128 110.505 128C116.306 128 122.006 125.75 126.256 121.499C128.581 119.173 128.581 115.373 126.256 113.047ZM30.0006 22.9045L27.1254 28.5306C30.7256 30.3559 34.9259 29.7558 37.8261 27.3303L49.6267 33.1815C49.6017 33.2065 49.6017 33.2315 49.5767 33.2565L78.2034 47.4593L86.3039 44.2086L87.904 48.9846C88.904 52.0102 91.0541 54.4856 93.9043 55.9109L108.43 63.1623C112.405 65.1377 117.181 63.5374 119.156 59.5866C121.131 55.6359 119.531 50.8349 115.581 48.8595L102.555 42.3333L98.2795 29.5308C96.2544 23.4796 88.054 15.378 77.1533 19.7289L56.8522 27.8554L41.2263 20.1039C41.3013 16.4782 39.4261 12.9525 36.0009 11.2022L33.2258 16.6282H33.1758L24.5753 14.8779C24.1253 14.7779 23.6502 14.9279 23.3252 15.303C22.8502 15.8531 22.9002 16.6783 23.4502 17.1534L30.0006 22.9045Z" fill="#292929"/>
</svg>
